<mxfile host="app.diagrams.net" agent="Mozilla/5.0 (Windows NT 10.0; Win64; x64) AppleWebKit/537.36 (KHTML, like Gecko) Chrome/131.0.0.0 Safari/537.36" version="24.8.8">
  <diagram name="Page-1" id="Lp0-lyClKBLKCoM5hN1j">
    <mxGraphModel dx="1050" dy="522" grid="1" gridSize="10" guides="1" tooltips="1" connect="1" arrows="1" fold="1" page="1" pageScale="1" pageWidth="600" pageHeight="500" math="0" shadow="0">
      <root>
        <mxCell id="0" />
        <mxCell id="1" parent="0" />
        <mxCell id="AYaTxCRxd5LHJ_S7ivTI-1" value="" style="ellipse;html=1;shape=startState;fillColor=#000000;strokeColor=#000000;" vertex="1" parent="1">
          <mxGeometry x="229" y="35" width="30" height="30" as="geometry" />
        </mxCell>
        <mxCell id="AYaTxCRxd5LHJ_S7ivTI-2" value="" style="edgeStyle=orthogonalEdgeStyle;html=1;verticalAlign=bottom;endArrow=open;endSize=8;strokeColor=#000000;rounded=0;entryX=0.5;entryY=0;entryDx=0;entryDy=0;" edge="1" source="AYaTxCRxd5LHJ_S7ivTI-1" parent="1" target="AYaTxCRxd5LHJ_S7ivTI-3">
          <mxGeometry relative="1" as="geometry">
            <mxPoint x="244" y="125" as="targetPoint" />
          </mxGeometry>
        </mxCell>
        <mxCell id="AYaTxCRxd5LHJ_S7ivTI-4" value="Create Ticket" style="edgeLabel;html=1;align=center;verticalAlign=middle;resizable=0;points=[];" vertex="1" connectable="0" parent="AYaTxCRxd5LHJ_S7ivTI-2">
          <mxGeometry x="-0.2914" y="5" relative="1" as="geometry">
            <mxPoint x="-5" y="5" as="offset" />
          </mxGeometry>
        </mxCell>
        <mxCell id="AYaTxCRxd5LHJ_S7ivTI-7" style="edgeStyle=orthogonalEdgeStyle;rounded=0;orthogonalLoop=1;jettySize=auto;html=1;entryX=0;entryY=0.5;entryDx=0;entryDy=0;" edge="1" parent="1" source="AYaTxCRxd5LHJ_S7ivTI-3" target="AYaTxCRxd5LHJ_S7ivTI-6">
          <mxGeometry relative="1" as="geometry" />
        </mxCell>
        <mxCell id="AYaTxCRxd5LHJ_S7ivTI-3" value="Created" style="html=1;whiteSpace=wrap;" vertex="1" parent="1">
          <mxGeometry x="189" y="135" width="110" height="50" as="geometry" />
        </mxCell>
        <mxCell id="AYaTxCRxd5LHJ_S7ivTI-10" style="edgeStyle=orthogonalEdgeStyle;rounded=0;orthogonalLoop=1;jettySize=auto;html=1;exitX=0.25;exitY=1;exitDx=0;exitDy=0;" edge="1" parent="1" source="AYaTxCRxd5LHJ_S7ivTI-6" target="AYaTxCRxd5LHJ_S7ivTI-9">
          <mxGeometry relative="1" as="geometry" />
        </mxCell>
        <mxCell id="AYaTxCRxd5LHJ_S7ivTI-6" value="Reserved" style="html=1;whiteSpace=wrap;" vertex="1" parent="1">
          <mxGeometry x="440" y="135" width="110" height="50" as="geometry" />
        </mxCell>
        <mxCell id="AYaTxCRxd5LHJ_S7ivTI-8" value="Reserve Seat" style="text;html=1;align=center;verticalAlign=middle;resizable=0;points=[];autosize=1;strokeColor=none;fillColor=none;" vertex="1" parent="1">
          <mxGeometry x="330" y="133" width="100" height="30" as="geometry" />
        </mxCell>
        <mxCell id="AYaTxCRxd5LHJ_S7ivTI-15" style="edgeStyle=orthogonalEdgeStyle;rounded=0;orthogonalLoop=1;jettySize=auto;html=1;exitX=1;exitY=0.5;exitDx=0;exitDy=0;entryX=0;entryY=0.5;entryDx=0;entryDy=0;" edge="1" parent="1" source="AYaTxCRxd5LHJ_S7ivTI-9" target="AYaTxCRxd5LHJ_S7ivTI-12">
          <mxGeometry relative="1" as="geometry" />
        </mxCell>
        <mxCell id="AYaTxCRxd5LHJ_S7ivTI-9" value="Confirmed" style="html=1;whiteSpace=wrap;" vertex="1" parent="1">
          <mxGeometry x="30" y="325" width="110" height="50" as="geometry" />
        </mxCell>
        <mxCell id="AYaTxCRxd5LHJ_S7ivTI-11" value="Confirm Booking" style="text;html=1;align=center;verticalAlign=middle;resizable=0;points=[];autosize=1;strokeColor=none;fillColor=none;" vertex="1" parent="1">
          <mxGeometry x="79" y="225" width="110" height="30" as="geometry" />
        </mxCell>
        <mxCell id="AYaTxCRxd5LHJ_S7ivTI-20" style="edgeStyle=orthogonalEdgeStyle;rounded=0;orthogonalLoop=1;jettySize=auto;html=1;exitX=0.5;exitY=1;exitDx=0;exitDy=0;entryX=0.5;entryY=0;entryDx=0;entryDy=0;" edge="1" parent="1" source="AYaTxCRxd5LHJ_S7ivTI-12" target="AYaTxCRxd5LHJ_S7ivTI-19">
          <mxGeometry relative="1" as="geometry" />
        </mxCell>
        <mxCell id="AYaTxCRxd5LHJ_S7ivTI-12" value="Cancel" style="html=1;whiteSpace=wrap;" vertex="1" parent="1">
          <mxGeometry x="440" y="325" width="110" height="50" as="geometry" />
        </mxCell>
        <mxCell id="AYaTxCRxd5LHJ_S7ivTI-13" style="edgeStyle=orthogonalEdgeStyle;rounded=0;orthogonalLoop=1;jettySize=auto;html=1;exitX=0.75;exitY=1;exitDx=0;exitDy=0;entryX=0.75;entryY=0;entryDx=0;entryDy=0;" edge="1" parent="1" source="AYaTxCRxd5LHJ_S7ivTI-6" target="AYaTxCRxd5LHJ_S7ivTI-12">
          <mxGeometry relative="1" as="geometry" />
        </mxCell>
        <mxCell id="AYaTxCRxd5LHJ_S7ivTI-14" value="Cancel Booking" style="edgeLabel;html=1;align=center;verticalAlign=middle;resizable=0;points=[];" vertex="1" connectable="0" parent="AYaTxCRxd5LHJ_S7ivTI-13">
          <mxGeometry x="0.04" relative="1" as="geometry">
            <mxPoint as="offset" />
          </mxGeometry>
        </mxCell>
        <mxCell id="AYaTxCRxd5LHJ_S7ivTI-18" value="Cancel Booking" style="text;html=1;align=center;verticalAlign=middle;resizable=0;points=[];autosize=1;strokeColor=none;fillColor=none;" vertex="1" parent="1">
          <mxGeometry x="180" y="325" width="110" height="30" as="geometry" />
        </mxCell>
        <mxCell id="AYaTxCRxd5LHJ_S7ivTI-19" value="" style="ellipse;html=1;shape=endState;fillColor=#000000;strokeColor=#000000;" vertex="1" parent="1">
          <mxGeometry x="480" y="435" width="30" height="30" as="geometry" />
        </mxCell>
      </root>
    </mxGraphModel>
  </diagram>
</mxfile>
